<svg width="18" height="18" viewBox="0 0 18 18" fill="none" xmlns="http://www.w3.org/2000/svg">
<path d="M0.910906 2.08958C0.585468 1.76414 0.585468 1.23651 0.910906 0.91107C1.23634 0.585633 1.76398 0.585633 2.08942 0.91107L12.5061 11.3277C12.8315 11.6532 12.8315 12.1808 12.5061 12.5062C12.1806 12.8317 11.653 12.8317 11.3276 12.5062L0.910906 2.08958Z" fill="#72767C"/>
<path d="M14.6609 15.8396C14.3355 15.5141 14.3355 14.9865 14.6609 14.6611C14.9863 14.3356 15.514 14.3356 15.8394 14.6611L17.0894 15.9111C17.4149 16.2365 17.4149 16.7641 17.0894 17.0896C16.764 17.415 16.2363 17.415 15.9109 17.0896L14.6609 15.8396Z" fill="#72767C"/>
</svg>
