<svg width="18" height="14" viewBox="0 0 18 14" fill="none" xmlns="http://www.w3.org/2000/svg">
<path fill-rule="evenodd" clip-rule="evenodd" d="M13.7851 1.66667H4.21481C3.25344 1.66667 2.49142 2.4778 2.55139 3.4373L2.96806 10.104C3.02296 10.9824 3.75137 11.6667 4.63148 11.6667H13.3685C14.2486 11.6667 14.977 10.9824 15.0319 10.104L15.4486 3.4373C15.5085 2.4778 14.7465 1.66667 13.7851 1.66667ZM4.21481 0C2.29208 0 0.768035 1.62227 0.887972 3.54126L1.30464 10.2079C1.41444 11.9647 2.87127 13.3333 4.63148 13.3333H13.3685C15.1287 13.3333 16.5855 11.9647 16.6953 10.2079L17.112 3.54126C17.2319 1.62227 15.7079 0 13.7851 0H4.21481Z" fill="#72767C"/>
</svg>
