<svg width="11" height="18" viewBox="0 0 11 18" fill="none" xmlns="http://www.w3.org/2000/svg">
<path fill-rule="evenodd" clip-rule="evenodd" d="M1.19107 11.5003C1.65098 11.4829 2.03788 11.8417 2.05524 12.3016C2.09439 13.3384 2.14936 14.0951 2.20341 14.6377C2.25664 15.172 2.57921 15.4935 3.02887 15.5485C3.55907 15.6133 4.30702 15.6663 5.3334 15.6663C6.35981 15.6663 7.10777 15.6133 7.63797 15.5485C8.08739 15.4935 8.41012 15.1719 8.46336 14.6374C8.56369 13.6303 8.66673 11.8904 8.66673 8.99967C8.66673 6.10899 8.56369 4.36902 8.46336 3.3619C8.41013 2.82745 8.08739 2.50581 7.63797 2.45087C7.10777 2.38605 6.35981 2.33301 5.3334 2.33301C4.30702 2.33301 3.55907 2.38605 3.02886 2.45086C2.57921 2.50583 2.25664 2.82732 2.20341 3.36165C2.14936 3.90422 2.09439 4.66095 2.05524 5.69778C2.03788 6.15769 1.65098 6.51644 1.19107 6.49908C0.731158 6.48172 0.372403 6.09481 0.389764 5.6349C0.429938 4.57071 0.4869 3.7792 0.544954 3.19643C0.667001 1.9713 1.52117 0.956093 2.82663 0.796512C3.43431 0.722229 4.25075 0.66634 5.3334 0.66634C6.41608 0.66634 7.23253 0.722233 7.84021 0.79652C9.14578 0.956121 9.9998 1.9718 10.1218 3.1967C10.2293 4.27524 10.3334 6.0734 10.3334 8.99967C10.3334 11.9259 10.2293 13.7241 10.1218 14.8027C9.99981 16.0275 9.14578 17.0432 7.84021 17.2028C7.23253 17.2771 6.41609 17.333 5.3334 17.333C4.25075 17.333 3.43431 17.2771 2.82664 17.2028C1.52117 17.0433 0.667001 16.0281 0.544954 14.8029C0.4869 14.2201 0.429938 13.4286 0.389764 12.3644C0.372403 11.9045 0.731159 11.5176 1.19107 11.5003Z" fill="#72767C"/>
</svg>
