<svg width="18" height="16" viewBox="0 0 18 16" fill="none" xmlns="http://www.w3.org/2000/svg">
<path fill-rule="evenodd" clip-rule="evenodd" d="M14.8332 1.99967H3.1665C2.70627 1.99967 2.33317 2.37277 2.33317 2.83301V12.833C2.33317 13.2932 2.70627 13.6663 3.1665 13.6663H14.8332C15.2934 13.6663 15.6665 13.2932 15.6665 12.833V2.83301C15.6665 2.37277 15.2934 1.99967 14.8332 1.99967ZM3.1665 0.333008C1.78579 0.333008 0.666504 1.4523 0.666504 2.83301V12.833C0.666504 14.2137 1.78579 15.333 3.1665 15.333H14.8332C16.2139 15.333 17.3332 14.2137 17.3332 12.833V2.83301C17.3332 1.4523 16.2139 0.333008 14.8332 0.333008H3.1665Z" fill="#72767C"/>
</svg>
