<svg width="9" height="9" viewBox="0 0 9 9" fill="none" xmlns="http://www.w3.org/2000/svg">
<path fill-rule="evenodd" clip-rule="evenodd" d="M4.4165 2.33366C4.03969 2.33366 3.50728 2.38575 2.95301 2.46165C2.69407 2.49712 2.49663 2.69456 2.46117 2.9535C2.38526 3.50776 2.33317 4.04017 2.33317 4.41699C2.33317 4.79381 2.38526 5.32622 2.46117 5.88048C2.49663 6.13942 2.69407 6.33687 2.95301 6.37233C3.50728 6.44824 4.03969 6.50033 4.4165 6.50033C4.79332 6.50033 5.32573 6.44824 5.87999 6.37233C6.13893 6.33687 6.33638 6.13942 6.37184 5.88048C6.44775 5.32622 6.49984 4.79381 6.49984 4.41699C6.49984 4.04017 6.44775 3.50776 6.37184 2.9535C6.33638 2.69456 6.13893 2.49712 5.87999 2.46165C5.32573 2.38575 4.79332 2.33366 4.4165 2.33366ZM2.72687 0.810402C1.72695 0.947345 0.946857 1.72744 0.809914 2.72736C0.731369 3.30086 0.666504 3.92379 0.666504 4.41699C0.666504 4.91019 0.731369 5.53312 0.809914 6.10663C0.946857 7.10655 1.72695 7.88664 2.72687 8.02358C3.30037 8.10213 3.9233 8.16699 4.4165 8.16699C4.9097 8.16699 5.53263 8.10213 6.10614 8.02358C7.10606 7.88664 7.88615 7.10655 8.02309 6.10663C8.10164 5.53312 8.1665 4.91019 8.1665 4.41699C8.1665 3.92379 8.10164 3.30086 8.02309 2.72736C7.88615 1.72744 7.10606 0.947345 6.10614 0.810402C5.53263 0.731858 4.9097 0.666992 4.4165 0.666992C3.9233 0.666992 3.30037 0.731858 2.72687 0.810402Z" fill="#5F6165"/>
</svg>
