<svg width="18" height="18" viewBox="0 0 18 18" fill="none" xmlns="http://www.w3.org/2000/svg">
<path fill-rule="evenodd" clip-rule="evenodd" d="M4.83317 12.2514V14.8296L9.05168 12.3368L9.49261 12.3296C11.2459 12.3009 12.8237 12.1244 14.0035 11.9449C14.7481 11.8316 15.2654 11.3119 15.3778 10.6594C15.5337 9.75439 15.6665 8.60776 15.6665 7.33366C15.6665 6.05956 15.5337 4.91293 15.3778 4.00788C15.2654 3.35539 14.7481 2.83576 14.0035 2.72247C12.7131 2.52613 10.9484 2.33366 8.99984 2.33366C7.05123 2.33366 5.28657 2.52613 3.99619 2.72247C3.25162 2.83576 2.73425 3.3554 2.62186 4.00788C2.46597 4.91293 2.33317 6.05956 2.33317 7.33366C2.33317 8.60776 2.46597 9.75439 2.62186 10.6594C2.71946 11.226 3.11529 11.6802 3.6924 11.8721L4.83317 12.2514ZM0.979386 3.72497C1.22121 2.32106 2.33711 1.28906 3.74548 1.07476C5.09493 0.869437 6.94616 0.666992 8.99984 0.666992C11.0535 0.666992 12.9047 0.869437 14.2542 1.07476C15.6626 1.28906 16.7785 2.32105 17.0203 3.72497C17.1888 4.70342 17.3332 5.94637 17.3332 7.33366C17.3332 8.72095 17.1888 9.9639 17.0203 10.9424C16.7785 12.3463 15.6626 13.3783 14.2542 13.5926C13.0197 13.7804 11.3652 13.9658 9.5199 13.996L4.42378 17.0074C3.86826 17.3356 3.1665 16.9352 3.1665 16.29V13.4536C2.03864 13.0786 1.18697 12.1475 0.979386 10.9424C0.810847 9.9639 0.666504 8.72095 0.666504 7.33366C0.666504 5.94637 0.810847 4.70342 0.979386 3.72497Z" fill="#72767C"/>
</svg>
