<svg width="14" height="6" viewBox="0 0 14 6" fill="none" xmlns="http://www.w3.org/2000/svg">
<path fill-rule="evenodd" clip-rule="evenodd" d="M5.3335 2.66699C5.3335 4.0477 4.21421 5.16699 2.8335 5.16699C1.45278 5.16699 0.333496 4.0477 0.333496 2.66699C0.333496 1.28628 1.45278 0.166992 2.8335 0.166992C4.21421 0.166992 5.3335 1.28628 5.3335 2.66699ZM3.66683 2.66699C3.66683 3.12723 3.29373 3.50033 2.8335 3.50033C2.37326 3.50033 2.00016 3.12723 2.00016 2.66699C2.00016 2.20675 2.37326 1.83366 2.8335 1.83366C3.29373 1.83366 3.66683 2.20675 3.66683 2.66699Z" fill="#72767C"/>
<path fill-rule="evenodd" clip-rule="evenodd" d="M13.6668 2.66699C13.6668 4.0477 12.5475 5.16699 11.1668 5.16699C9.78612 5.16699 8.66683 4.0477 8.66683 2.66699C8.66683 1.28628 9.78612 0.166992 11.1668 0.166992C12.5475 0.166992 13.6668 1.28628 13.6668 2.66699ZM12.0002 2.66699C12.0002 3.12723 11.6271 3.50033 11.1668 3.50033C10.7066 3.50033 10.3335 3.12723 10.3335 2.66699C10.3335 2.20675 10.7066 1.83366 11.1668 1.83366C11.6271 1.83366 12.0002 2.20675 12.0002 2.66699Z" fill="#72767C"/>
</svg>
