<svg width="18" height="13" viewBox="0 0 18 13" fill="none" xmlns="http://www.w3.org/2000/svg">
<path fill-rule="evenodd" clip-rule="evenodd" d="M0.754664 1.12685C0.960488 0.715205 1.46105 0.548351 1.8727 0.754176L2.70895 1.1723C3.48334 1.5595 4.00227 2.3198 4.08065 3.18203L4.12052 3.62059C4.14003 3.8352 4.31998 3.99953 4.53548 3.99953H15.5296C16.9842 3.99953 17.991 5.45239 17.4803 6.81437L16.0192 10.7107C15.6533 11.6864 14.7205 12.3329 13.6784 12.3329H5.52204C4.22904 12.3329 3.14937 11.3469 3.03231 10.0592L2.42083 3.33293C2.3947 3.04551 2.22173 2.79208 1.9636 2.66302L1.12734 2.24489C0.715693 2.03906 0.548839 1.5385 0.754664 1.12685ZM4.76275 5.6662C4.51774 5.6662 4.32561 5.87658 4.34779 6.12059L4.69213 9.90831C4.73115 10.3375 5.09104 10.6662 5.52204 10.6662H13.6784C14.0257 10.6662 14.3367 10.4507 14.4586 10.1255L15.9197 6.22917C16.0219 5.95677 15.8205 5.6662 15.5296 5.6662H4.76275Z" fill="#72767C"/>
</svg>
