<svg width="30" height="11" viewBox="0 0 30 11" fill="none" xmlns="http://www.w3.org/2000/svg">
<path d="M2.002 10V1.88L0.42 2.244V1.152L2.59 0.199999H3.542V10H2.002ZM8.66906 10.168C8.0344 10.168 7.45573 10.056 6.93306 9.832C6.41973 9.59867 6.00906 9.24867 5.70106 8.782C5.39306 8.31533 5.22973 7.732 5.21106 7.032H6.68106C6.69973 7.55467 6.87706 7.998 7.21306 8.362C7.5584 8.71667 8.04373 8.894 8.66906 8.894C9.2664 8.894 9.72373 8.73067 10.0411 8.404C10.3584 8.068 10.5171 7.65267 10.5171 7.158C10.5171 6.56067 10.3024 6.11733 9.87306 5.828C9.45306 5.53867 8.93506 5.394 8.31906 5.394H7.59106V4.162H8.33306C8.88373 4.162 9.32706 4.03133 9.66306 3.77C10.0084 3.50867 10.1811 3.14 10.1811 2.664C10.1811 2.26267 10.0457 1.936 9.77506 1.684C9.51373 1.432 9.1404 1.306 8.65506 1.306C8.15106 1.306 7.7544 1.45533 7.46506 1.754C7.17573 2.04333 7.01706 2.40733 6.98906 2.846H5.51906C5.53773 2.27667 5.67773 1.782 5.93906 1.362C6.20973 0.941999 6.5784 0.615333 7.04506 0.381999C7.51173 0.148666 8.0484 0.0319998 8.65506 0.0319998C9.3084 0.0319998 9.8544 0.148666 10.2931 0.381999C10.7411 0.605999 11.0771 0.913999 11.3011 1.306C11.5344 1.68867 11.6511 2.10867 11.6511 2.566C11.6511 3.08867 11.5064 3.546 11.2171 3.938C10.9277 4.33 10.5404 4.59133 10.0551 4.722C10.6151 4.84333 11.0771 5.11867 11.4411 5.548C11.8051 5.968 11.9871 6.514 11.9871 7.186C11.9871 7.72733 11.8611 8.22667 11.6091 8.684C11.3571 9.132 10.9837 9.49133 10.4891 9.762C9.9944 10.0327 9.38773 10.168 8.66906 10.168ZM13.6222 10V8.936C14.2569 8.432 14.8636 7.92333 15.4422 7.41C16.0209 6.89667 16.5342 6.39267 16.9822 5.898C17.4396 5.394 17.7989 4.904 18.0602 4.428C18.3216 3.94267 18.4522 3.476 18.4522 3.028C18.4522 2.72933 18.4009 2.44933 18.2982 2.188C18.1956 1.91733 18.0276 1.70267 17.7942 1.544C17.5609 1.376 17.2482 1.292 16.8562 1.292C16.2682 1.292 15.8249 1.47867 15.5262 1.852C15.2369 2.22533 15.0969 2.67333 15.1062 3.196H13.6642C13.6736 2.50533 13.8182 1.92667 14.0982 1.46C14.3876 0.993333 14.7702 0.638666 15.2462 0.395999C15.7316 0.153333 16.2776 0.0319998 16.8842 0.0319998C17.8082 0.0319998 18.5456 0.293333 19.0962 0.816C19.6562 1.32933 19.9362 2.048 19.9362 2.972C19.9362 3.52267 19.8009 4.06867 19.5302 4.61C19.2689 5.15133 18.9236 5.674 18.4942 6.178C18.0742 6.67267 17.6216 7.13933 17.1362 7.578C16.6509 8.01667 16.1889 8.41333 15.7502 8.768H20.2302V10H13.6222ZM21.8299 10V0.199999H23.3139V4.4L27.1779 0.199999H29.0119L25.3859 4.106L29.0959 10H27.2899L24.3219 5.24L23.3139 6.332V10H21.8299Z" fill="#72767C"/>
</svg>
