<svg width="38" height="14" viewBox="0 0 38 14" fill="none" xmlns="http://www.w3.org/2000/svg">
<path d="M3.64 13.218V12.14C2.72533 12.0373 1.99267 11.7153 1.442 11.174C0.891333 10.6327 0.611333 9.92333 0.602 9.046H2.17C2.17933 9.48467 2.31 9.872 2.562 10.208C2.814 10.5347 3.17333 10.754 3.64 10.866V7.492C3.56533 7.47333 3.486 7.45 3.402 7.422C3.32733 7.394 3.248 7.366 3.164 7.338C2.408 7.086 1.83867 6.75933 1.456 6.358C1.08267 5.95667 0.896 5.42933 0.896 4.776C0.886667 4.01067 1.134 3.38533 1.638 2.9C2.142 2.41467 2.80933 2.13 3.64 2.046V0.926H4.592V2.06C5.404 2.15333 6.05733 2.44733 6.552 2.942C7.04667 3.43667 7.29867 4.05733 7.308 4.804H5.74C5.73067 4.496 5.628 4.20667 5.432 3.936C5.24533 3.656 4.96533 3.46467 4.592 3.362V6.358C4.66667 6.386 4.74133 6.414 4.816 6.442C4.89067 6.46067 4.96533 6.484 5.04 6.512C5.52533 6.67067 5.95933 6.862 6.342 7.086C6.72467 7.31 7.028 7.604 7.252 7.968C7.48533 8.332 7.602 8.794 7.602 9.354C7.602 9.82067 7.49 10.2593 7.266 10.67C7.042 11.0713 6.706 11.4073 6.258 11.678C5.81 11.9487 5.25467 12.1073 4.592 12.154V13.218H3.64ZM2.436 4.65C2.436 5.02333 2.54333 5.31267 2.758 5.518C2.97267 5.714 3.26667 5.88667 3.64 6.036V3.32C3.28533 3.38533 2.996 3.53467 2.772 3.768C2.548 3.992 2.436 4.286 2.436 4.65ZM6.034 9.452C6.034 8.99467 5.89867 8.64933 5.628 8.416C5.35733 8.17333 5.012 7.97267 4.592 7.814V10.894C5.04933 10.838 5.404 10.6793 5.656 10.418C5.908 10.1567 6.034 9.83467 6.034 9.452ZM9.02847 12V10.936C9.66314 10.432 10.2698 9.92333 10.8485 9.41C11.4271 8.89667 11.9405 8.39267 12.3885 7.898C12.8458 7.394 13.2051 6.904 13.4665 6.428C13.7278 5.94267 13.8585 5.476 13.8585 5.028C13.8585 4.72933 13.8071 4.44933 13.7045 4.188C13.6018 3.91733 13.4338 3.70267 13.2005 3.544C12.9671 3.376 12.6545 3.292 12.2625 3.292C11.6745 3.292 11.2311 3.47867 10.9325 3.852C10.6431 4.22533 10.5031 4.67333 10.5125 5.196H9.07047C9.0798 4.50533 9.22447 3.92667 9.50447 3.46C9.7938 2.99333 10.1765 2.63867 10.6525 2.396C11.1378 2.15333 11.6838 2.032 12.2905 2.032C13.2145 2.032 13.9518 2.29333 14.5025 2.816C15.0625 3.32933 15.3425 4.048 15.3425 4.972C15.3425 5.52267 15.2071 6.06867 14.9365 6.61C14.6751 7.15133 14.3298 7.674 13.9005 8.178C13.4805 8.67267 13.0278 9.13933 12.5425 9.578C12.0571 10.0167 11.5951 10.4133 11.1565 10.768H15.6365V12H9.02847ZM20.4045 12.168C19.7511 12.168 19.1585 12.0513 18.6265 11.818C18.1038 11.5753 17.6838 11.2393 17.3665 10.81C17.0585 10.3807 16.9045 9.87667 16.9045 9.298C16.9045 8.71 17.0678 8.18267 17.3945 7.716C17.7305 7.24933 18.1738 6.932 18.7245 6.764C18.2298 6.568 17.8471 6.28333 17.5765 5.91C17.3058 5.52733 17.1705 5.10733 17.1705 4.65C17.1705 4.174 17.2965 3.74 17.5485 3.348C17.8005 2.94667 18.1645 2.62933 18.6405 2.396C19.1258 2.15333 19.7138 2.032 20.4045 2.032C21.0951 2.032 21.6785 2.15333 22.1545 2.396C22.6398 2.62933 23.0085 2.94667 23.2605 3.348C23.5125 3.74 23.6385 4.174 23.6385 4.65C23.6385 5.098 23.4985 5.518 23.2185 5.91C22.9478 6.29267 22.5651 6.57733 22.0705 6.764C22.6211 6.94133 23.0598 7.26333 23.3865 7.73C23.7225 8.18733 23.8905 8.71 23.8905 9.298C23.8905 9.87667 23.7365 10.3807 23.4285 10.81C23.1205 11.2393 22.7005 11.5753 22.1685 11.818C21.6458 12.0513 21.0578 12.168 20.4045 12.168ZM20.4045 6.288C20.9458 6.288 21.3705 6.148 21.6785 5.868C21.9958 5.588 22.1545 5.22867 22.1545 4.79C22.1545 4.29533 22.0005 3.91733 21.6925 3.656C21.3845 3.39467 20.9551 3.264 20.4045 3.264C19.8538 3.264 19.4245 3.39467 19.1165 3.656C18.8085 3.91733 18.6545 4.29533 18.6545 4.79C18.6545 5.22867 18.8085 5.588 19.1165 5.868C19.4245 6.148 19.8538 6.288 20.4045 6.288ZM20.4045 10.908C21.0765 10.908 21.5805 10.7493 21.9165 10.432C22.2525 10.1053 22.4205 9.69 22.4205 9.186C22.4205 8.626 22.2385 8.19667 21.8745 7.898C21.5198 7.59 21.0298 7.436 20.4045 7.436C19.7791 7.436 19.2845 7.59 18.9205 7.898C18.5565 8.19667 18.3745 8.626 18.3745 9.186C18.3745 9.69 18.5425 10.1053 18.8785 10.432C19.2238 10.7493 19.7325 10.908 20.4045 10.908ZM24.741 13.442L28.241 1.206H29.697L26.183 13.442H24.741ZM31.0025 12V1.92H32.4865V6.176C32.7198 5.77467 33.0418 5.462 33.4525 5.238C33.8725 5.00467 34.3345 4.888 34.8385 4.888C35.6691 4.888 36.3225 5.14933 36.7985 5.672C37.2745 6.19467 37.5125 6.974 37.5125 8.01V12H36.0425V8.164C36.0425 6.82 35.5058 6.148 34.4325 6.148C33.8725 6.148 33.4058 6.344 33.0325 6.736C32.6685 7.128 32.4865 7.688 32.4865 8.416V12H31.0025Z" fill="#72767C"/>
</svg>
