<svg width="38" height="14" viewBox="0 0 38 14" fill="none" xmlns="http://www.w3.org/2000/svg">
<path d="M3.64 13.218V12.14C2.72533 12.0373 1.99267 11.7153 1.442 11.174C0.891333 10.6327 0.611333 9.92333 0.602 9.046H2.17C2.17933 9.48467 2.31 9.872 2.562 10.208C2.814 10.5347 3.17333 10.754 3.64 10.866V7.492C3.56533 7.47333 3.486 7.45 3.402 7.422C3.32733 7.394 3.248 7.366 3.164 7.338C2.408 7.086 1.83867 6.75933 1.456 6.358C1.08267 5.95667 0.896 5.42933 0.896 4.776C0.886667 4.01067 1.134 3.38533 1.638 2.9C2.142 2.41467 2.80933 2.13 3.64 2.046V0.926H4.592V2.06C5.404 2.15333 6.05733 2.44733 6.552 2.942C7.04667 3.43667 7.29867 4.05733 7.308 4.804H5.74C5.73067 4.496 5.628 4.20667 5.432 3.936C5.24533 3.656 4.96533 3.46467 4.592 3.362V6.358C4.66667 6.386 4.74133 6.414 4.816 6.442C4.89067 6.46067 4.96533 6.484 5.04 6.512C5.52533 6.67067 5.95933 6.862 6.342 7.086C6.72467 7.31 7.028 7.604 7.252 7.968C7.48533 8.332 7.602 8.794 7.602 9.354C7.602 9.82067 7.49 10.2593 7.266 10.67C7.042 11.0713 6.706 11.4073 6.258 11.678C5.81 11.9487 5.25467 12.1073 4.592 12.154V13.218H3.64ZM2.436 4.65C2.436 5.02333 2.54333 5.31267 2.758 5.518C2.97267 5.714 3.26667 5.88667 3.64 6.036V3.32C3.28533 3.38533 2.996 3.53467 2.772 3.768C2.548 3.992 2.436 4.286 2.436 4.65ZM6.034 9.452C6.034 8.99467 5.89867 8.64933 5.628 8.416C5.35733 8.17333 5.012 7.97267 4.592 7.814V10.894C5.04933 10.838 5.404 10.6793 5.656 10.418C5.908 10.1567 6.034 9.83467 6.034 9.452ZM12.3605 12.168C11.7258 12.168 11.1471 12.056 10.6245 11.832C10.1111 11.5987 9.70047 11.2487 9.39247 10.782C9.08447 10.3153 8.92114 9.732 8.90247 9.032H10.3725C10.3911 9.55467 10.5685 9.998 10.9045 10.362C11.2498 10.7167 11.7351 10.894 12.3605 10.894C12.9578 10.894 13.4151 10.7307 13.7325 10.404C14.0498 10.068 14.2085 9.65267 14.2085 9.158C14.2085 8.56067 13.9938 8.11733 13.5645 7.828C13.1445 7.53867 12.6265 7.394 12.0105 7.394H11.2825V6.162H12.0245C12.5751 6.162 13.0185 6.03133 13.3545 5.77C13.6998 5.50867 13.8725 5.14 13.8725 4.664C13.8725 4.26267 13.7371 3.936 13.4665 3.684C13.2051 3.432 12.8318 3.306 12.3465 3.306C11.8425 3.306 11.4458 3.45533 11.1565 3.754C10.8671 4.04333 10.7085 4.40733 10.6805 4.846H9.21047C9.22914 4.27667 9.36914 3.782 9.63047 3.362C9.90114 2.942 10.2698 2.61533 10.7365 2.382C11.2031 2.14867 11.7398 2.032 12.3465 2.032C12.9998 2.032 13.5458 2.14867 13.9845 2.382C14.4325 2.606 14.7685 2.914 14.9925 3.306C15.2258 3.68867 15.3425 4.10867 15.3425 4.566C15.3425 5.08867 15.1978 5.546 14.9085 5.938C14.6191 6.33 14.2318 6.59133 13.7465 6.722C14.3065 6.84333 14.7685 7.11867 15.1325 7.548C15.4965 7.968 15.6785 8.514 15.6785 9.186C15.6785 9.72733 15.5525 10.2267 15.3005 10.684C15.0485 11.132 14.6751 11.4913 14.1805 11.762C13.6858 12.0327 13.0791 12.168 12.3605 12.168ZM17.3136 12V10.936C17.9483 10.432 18.555 9.92333 19.1336 9.41C19.7123 8.89667 20.2256 8.39267 20.6736 7.898C21.131 7.394 21.4903 6.904 21.7516 6.428C22.013 5.94267 22.1436 5.476 22.1436 5.028C22.1436 4.72933 22.0923 4.44933 21.9896 4.188C21.887 3.91733 21.719 3.70267 21.4856 3.544C21.2523 3.376 20.9396 3.292 20.5476 3.292C19.9596 3.292 19.5163 3.47867 19.2176 3.852C18.9283 4.22533 18.7883 4.67333 18.7976 5.196H17.3556C17.365 4.50533 17.5096 3.92667 17.7896 3.46C18.079 2.99333 18.4616 2.63867 18.9376 2.396C19.423 2.15333 19.969 2.032 20.5756 2.032C21.4996 2.032 22.237 2.29333 22.7876 2.816C23.3476 3.32933 23.6276 4.048 23.6276 4.972C23.6276 5.52267 23.4923 6.06867 23.2216 6.61C22.9603 7.15133 22.615 7.674 22.1856 8.178C21.7656 8.67267 21.313 9.13933 20.8276 9.578C20.3423 10.0167 19.8803 10.4133 19.4416 10.768H23.9216V12H17.3136ZM24.8913 13.442L28.3913 1.206H29.8473L26.3333 13.442H24.8913ZM31.1528 12V1.92H32.6368V6.176C32.8702 5.77467 33.1922 5.462 33.6028 5.238C34.0228 5.00467 34.4848 4.888 34.9888 4.888C35.8195 4.888 36.4728 5.14933 36.9488 5.672C37.4248 6.19467 37.6628 6.974 37.6628 8.01V12H36.1928V8.164C36.1928 6.82 35.6562 6.148 34.5828 6.148C34.0228 6.148 33.5562 6.344 33.1828 6.736C32.8188 7.128 32.6368 7.688 32.6368 8.416V12H31.1528Z" fill="#72767C"/>
</svg>
