<svg width="8" height="8" viewBox="0 0 8 8" fill="none" xmlns="http://www.w3.org/2000/svg">
<path fill-rule="evenodd" clip-rule="evenodd" d="M4.20573 5.18214C4.43677 5.41317 4.79478 5.50168 5.04865 5.296C5.42581 4.99044 5.6669 4.52354 5.6669 4.00033C5.6669 3.07985 4.92071 2.33366 4.00023 2.33366C3.47702 2.33366 3.01012 2.57475 2.70456 2.95191C2.49888 3.20578 2.58739 3.56379 2.81843 3.79483L4.20573 5.18214ZM5.01949 7.17495C4.38815 7.37749 3.73684 7.07027 3.268 6.60143L1.39913 4.73256C0.930293 4.26372 0.623074 3.61241 0.825616 2.98107C1.25627 1.63865 2.51478 0.666992 4.00023 0.666992C5.84118 0.666992 7.33357 2.15938 7.33357 4.00033C7.33357 5.48578 6.36191 6.74429 5.01949 7.17495Z" fill="#72767C"/>
</svg>
