<svg width="8" height="8" viewBox="0 0 8 8" fill="none" xmlns="http://www.w3.org/2000/svg">
<path fill-rule="evenodd" clip-rule="evenodd" d="M3.79427 5.18214C3.56323 5.41317 3.20522 5.50168 2.95135 5.296C2.57419 4.99044 2.3331 4.52354 2.3331 4.00033C2.3331 3.07985 3.07929 2.33366 3.99977 2.33366C4.52298 2.33366 4.98988 2.57475 5.29544 2.95191C5.50112 3.20578 5.41261 3.56379 5.18157 3.79483L3.79427 5.18214ZM2.98051 7.17495C3.61185 7.37749 4.26316 7.07027 4.732 6.60143L6.60087 4.73256C7.06971 4.26372 7.37693 3.61241 7.17438 2.98107C6.74373 1.63865 5.48522 0.666992 3.99977 0.666992C2.15882 0.666992 0.666433 2.15938 0.666433 4.00033C0.666433 5.48578 1.63809 6.74429 2.98051 7.17495Z" fill="#72767C"/>
</svg>
