<svg width="18" height="18" viewBox="0 0 18 18" fill="none" xmlns="http://www.w3.org/2000/svg">
<path d="M17.0891 2.08958C17.4145 1.76414 17.4145 1.23651 17.0891 0.91107C16.7637 0.585633 16.236 0.585633 15.9106 0.91107L5.49392 11.3277C5.16848 11.6532 5.16848 12.1808 5.49392 12.5062C5.81935 12.8317 6.34699 12.8317 6.67243 12.5062L17.0891 2.08958Z" fill="#72767C"/>
<path d="M3.33909 15.8396C3.66453 15.5141 3.66453 14.9865 3.33909 14.6611C3.01366 14.3356 2.48602 14.3356 2.16058 14.6611L0.910582 15.9111C0.585145 16.2365 0.585145 16.7641 0.910582 17.0896C1.23602 17.415 1.76366 17.415 2.08909 17.0896L3.33909 15.8396Z" fill="#72767C"/>
</svg>
